<?xml version="1.0" standalone="no"?>
<!DOCTYPE svg PUBLIC "-//W3C//DTD SVG 20010904//EN"
 "http://www.w3.org/TR/2001/REC-SVG-20010904/DTD/svg10.dtd">
<svg version="1.0" xmlns="http://www.w3.org/2000/svg"
 width="656.000000pt" height="312.000000pt" viewBox="0 0 656.000000 312.000000"
 preserveAspectRatio="xMidYMid meet">

<g transform="translate(0.000000,312.000000) scale(0.100000,-0.100000)"
fill="#000000" stroke="none">
<path d="M3890 3108 c0 -7 -12 -24 -25 -37 -19 -18 -25 -33 -25 -66 0 -36 5
-48 31 -70 l32 -26 24 36 c13 20 22 44 20 53 -3 14 -6 12 -15 -8 -6 -14 -11
-19 -11 -12 -1 9 -5 10 -20 1 -26 -17 -53 -4 -49 23 4 29 35 35 53 11 13 -16
14 -16 15 -1 0 13 10 16 45 16 26 0 45 -4 45 -11 0 -8 4 -7 12 1 18 18 46 14
58 -7 14 -27 -13 -53 -46 -45 -28 7 -29 3 -8 -38 22 -42 11 -98 -19 -99 -12 0
-31 -5 -42 -10 -14 -7 -9 -7 20 -3 22 4 55 6 73 5 52 -3 217 -39 259 -56 35
-15 39 -15 50 1 20 28 15 66 -18 132 -36 72 -46 81 -57 51 -7 -19 -10 -20 -15
-6 -4 10 -1 17 5 17 9 0 9 3 0 12 -8 8 -15 8 -28 -3 -16 -13 -17 -11 -10 21 3
19 13 41 21 49 12 12 16 9 29 -20 l14 -34 1 33 c1 29 15 44 23 23 8 -23 112
-11 121 14 4 8 -8 24 -28 39 -37 28 -55 33 -55 14 0 -9 -3 -9 -12 0 -18 18
-468 17 -468 0z m164 -23 c-4 -8 -8 -15 -10 -15 -2 0 -4 7 -4 15 0 8 4 15 10
15 5 0 7 -7 4 -15z m221 5 c-3 -5 -11 -10 -16 -10 -6 0 -7 5 -4 10 3 6 11 10
16 10 6 0 7 -4 4 -10z m-88 -82 c-3 -8 -6 -5 -6 6 -1 11 2 17 5 13 3 -3 4 -12
1 -19z m-27 -94 c0 -2 -7 -4 -15 -4 -8 0 -15 4 -15 10 0 5 7 7 15 4 8 -4 15
-8 15 -10z m-83 -66 c-3 -8 -6 -5 -6 6 -1 11 2 17 5 13 3 -3 4 -12 1 -19z
m158 12 c-3 -5 -11 -10 -16 -10 -6 0 -7 5 -4 10 3 6 11 10 16 10 6 0 7 -4 4
-10z m75 -70 c0 -5 -2 -10 -4 -10 -3 0 -8 5 -11 10 -3 6 -1 10 4 10 6 0 11 -4
11 -10z"/>
<path d="M800 3095 c0 -8 7 -15 15 -15 8 0 15 7 15 15 0 8 -7 15 -15 15 -8 0
-15 -7 -15 -15z"/>
<path d="M3865 3010 c-7 -12 2 -30 16 -30 12 0 12 27 0 35 -5 3 -12 1 -16 -5z"/>
<path d="M3980 2995 c0 -8 2 -15 4 -15 2 0 6 7 10 15 3 8 1 15 -4 15 -6 0 -10
-7 -10 -15z"/>
<path d="M4307 2634 c-21 -47 -37 -92 -35 -101 2 -9 15 12 30 48 14 35 34 81
42 102 9 20 13 37 9 37 -5 0 -25 -39 -46 -86z"/>
<path d="M1182 2304 l3 -356 165 1 c91 1 171 -3 179 -8 12 -8 13 -18 2 -66 -9
-41 -10 -60 -2 -68 8 -8 14 -8 23 1 18 18 28 15 28 -8 0 -26 25 -26 44 1 l14
21 11 -21 c13 -24 37 -18 46 10 6 16 9 18 21 8 25 -20 47 12 52 75 l4 56 159
0 159 0 0 -45 0 -45 855 0 855 0 -15 -23 c-14 -22 -13 -26 8 -50 25 -30 39
-33 56 -13 10 12 19 11 61 -7 33 -14 50 -27 50 -39 0 -15 -12 -18 -102 -20
l-102 -3 0 -45 0 -45 417 -3 418 -2 -3 47 -3 48 -267 3 c-250 2 -268 4 -268
20 0 12 16 25 48 39 48 19 50 19 74 2 25 -18 25 -18 53 11 27 28 27 31 12 48
-9 10 -17 22 -17 25 0 4 122 7 270 7 l270 0 0 260 0 260 35 0 35 0 -1 -757
c-2 -664 -12 -1426 -17 -1244 -1 35 -5 61 -9 58 -3 -4 -12 -2 -20 4 -11 9 -13
-2 -13 -65 l0 -76 -1685 0 -1685 0 0 458 0 457 60 33 c33 18 58 37 55 42 -3 5
-22 12 -43 16 -35 6 -162 69 -162 80 0 3 35 2 77 -2 70 -6 76 -5 65 9 -29 35
-103 59 -182 58 -71 0 -81 2 -133 35 l-57 36 0 213 c0 177 -3 215 -15 225 -19
16 -19 59 0 66 8 4 12 10 9 15 -3 5 2 6 10 3 26 -10 39 32 31 102 -4 35 -11
66 -16 70 -5 3 2 19 16 36 18 21 24 37 19 52 -9 30 -35 48 -59 40 -20 -6 -55
-12 -86 -13 -8 -1 -32 -17 -53 -36 -33 -30 -37 -39 -32 -62 16 -64 18 -83 8
-83 -16 0 -1 -40 19 -53 28 -17 26 -82 -3 -105 -86 -66 -180 -208 -246 -368
-16 -39 -37 -86 -45 -105 -43 -94 -47 -108 -30 -117 13 -8 13 -12 2 -33 -10
-17 -14 -78 -15 -219 -1 -107 -7 -262 -13 -345 -7 -82 -18 -235 -26 -340 -8
-104 -15 -198 -15 -207 0 -16 -16 -18 -152 -21 l-153 -3 150 -2 151 -2 -4 -41
c-3 -30 -7 -38 -14 -28 -6 10 -7 3 -4 -21 5 -31 5 -33 -6 -12 -6 12 -16 22
-22 22 -6 0 -4 5 4 10 10 7 -20 10 -95 10 -60 0 -121 1 -135 1 -14 1 -78 -2
-142 -6 l-118 -8 0 -79 0 -78 3280 0 3280 0 0 79 0 80 -432 3 c-238 2 -440 6
-448 9 -8 3 -12 4 -7 2 19 -11 4 -21 -25 -17 -18 3 -148 6 -289 7 -218 2 -256
0 -251 -12 3 -9 -2 -7 -14 5 -13 12 -16 22 -10 27 7 4 6 10 -4 17 -38 25 27
30 464 30 247 0 451 2 454 5 3 3 -71 5 -165 5 -93 0 -172 2 -174 4 -2 3 1 74
8 158 6 84 12 161 12 171 1 9 8 17 16 17 11 0 15 12 15 50 l0 50 -74 0 -74 0
-6 43 c-3 23 -8 81 -12 130 l-7 87 37 0 c55 0 81 -31 101 -126 21 -94 35 -125
71 -153 33 -26 60 -26 101 -1 43 26 55 52 54 116 -1 87 -40 159 -109 201 -44
27 -152 32 -207 9 -42 -18 -43 -11 -11 53 27 52 40 58 164 81 64 12 110 42
127 84 36 86 -48 156 -134 112 -43 -23 -96 -88 -116 -142 -10 -27 -31 -77 -46
-112 -16 -34 -29 -67 -29 -72 0 -6 -3 -10 -7 -10 -14 0 -62 204 -67 281 -7
122 -61 238 -135 290 -66 47 -112 44 -144 -11 -47 -78 16 -212 133 -282 112
-68 153 -125 181 -251 11 -54 11 -59 -7 -77 -19 -20 -20 -19 -63 39 -77 106
-170 143 -266 107 -72 -28 -110 -111 -81 -179 34 -81 107 -77 211 13 72 62
121 65 150 9 14 -26 14 -37 0 -104 -8 -41 -15 -88 -15 -104 0 -30 0 -30 -62
-33 l-63 -3 -3 -46 c-2 -38 0 -47 16 -51 17 -5 20 -22 30 -159 7 -85 12 -161
12 -169 0 -13 -23 -15 -145 -15 l-145 0 -2 35 c-1 26 -3 21 -8 -20 -4 -30 -8
103 -10 295 -2 193 -4 357 -5 365 -1 8 -3 403 -4 878 l-1 862 -42 0 c-36 0
-46 -5 -75 -39 -39 -46 -88 -65 -150 -58 l-45 5 -130 -126 c-128 -124 -129
-126 -123 -161 8 -45 9 -45 33 -30 26 16 52 5 52 -23 0 -13 9 -29 21 -36 15
-10 19 -20 15 -37 -7 -29 2 -55 20 -55 23 0 18 -51 -6 -57 -21 -6 -35 -36 -25
-53 12 -20 -15 -39 -45 -33 -21 4 -33 0 -46 -16 -21 -24 -54 -28 -54 -6 0 19
-36 38 -60 30 -24 -8 -40 20 -33 56 4 20 -1 31 -17 42 -16 11 -20 21 -15 36 3
12 12 21 18 21 7 0 18 9 25 20 11 18 10 20 -21 20 -49 0 -97 -52 -97 -105 -1
-84 -54 -154 -132 -176 -36 -9 -98 -5 -98 8 0 2 21 24 46 47 47 42 47 42 35
79 -9 27 -23 43 -51 57 l-39 20 -50 -49 c-45 -43 -51 -47 -56 -30 -10 31 4 95
29 131 27 41 90 77 136 79 19 1 27 3 18 6 -11 3 -18 14 -18 29 0 23 3 24 68
24 85 0 102 14 102 86 1 27 7 67 15 89 13 36 13 44 -3 82 -15 39 -21 43 -67
51 -27 6 -81 17 -120 27 -38 9 -98 23 -132 31 -52 12 -277 14 -1403 14 l-1340
0 2 -356z m278 115 c0 -25 -33 -22 -38 4 -2 12 3 17 17 17 15 0 21 -6 21 -21z
m90 6 c0 -9 -7 -18 -16 -22 -18 -7 -39 11 -30 26 11 17 46 13 46 -4z m1787
-151 c25 -5 33 -13 42 -46 22 -73 77 -68 -775 -68 l-764 0 0 60 0 60 734 0
c403 0 747 -3 763 -6z m333 -14 c0 -10 -14 -32 -31 -49 -43 -43 -103 -44 -148
-2 -17 16 -31 38 -31 49 0 19 6 20 105 20 95 0 105 -1 105 -18z m300 0 c0 -11
-8 -23 -17 -26 -10 -3 -32 -12 -49 -19 -28 -12 -33 -11 -52 8 l-22 21 -30 -29
-30 -29 0 26 c0 17 7 27 20 31 11 3 20 12 20 21 0 13 13 16 80 16 74 0 80 -2
80 -20z m-2340 -25 c-10 -12 -10 -19 -2 -27 21 -21 13 -32 -8 -13 -25 22 -26
41 -3 54 23 12 29 6 13 -14z m133 7 c16 -17 15 -20 -7 -41 -13 -12 -27 -18
-30 -13 -3 5 1 15 9 22 14 11 14 15 -1 31 -15 16 -15 19 -2 19 8 0 22 -8 31
-18z m-693 -142 c0 -5 -2 -10 -4 -10 -3 0 -8 5 -11 10 -3 6 -1 10 4 10 6 0 11
-4 11 -10z m95 -870 c13 0 15 -20 14 -142 0 -79 -2 -138 -5 -133 -11 28 -84
280 -84 292 0 11 5 11 30 -2 16 -8 36 -15 45 -15z m4347 -335 c-2 -19 -8 -35
-12 -35 -13 0 -18 36 -8 54 15 27 24 18 20 -19z m-23 -142 c1 -58 -1 -63 -20
-63 -21 0 -21 3 -15 71 13 128 33 123 35 -8z m50 -30 c1 -23 -4 -33 -14 -33
-12 0 -15 14 -15 63 0 34 4 73 7 87 6 20 9 15 14 -30 4 -30 7 -70 8 -87z
m-4639 -278 l-7 -210 -1 160 c-2 137 5 272 13 263 1 -2 -1 -97 -5 -213z m4157
-267 c-3 -8 -6 -5 -6 6 -1 11 2 17 5 13 3 -3 4 -12 1 -19z m-4170 -30 c-3 -8
-6 -5 -6 6 -1 11 2 17 5 13 3 -3 4 -12 1 -19z"/>
<path d="M3480 2253 c0 -17 48 -55 62 -50 9 4 8 6 -4 6 -9 1 -26 13 -37 27
-12 15 -21 22 -21 17z"/>
<path d="M3640 2252 c0 -7 -15 -21 -32 -32 -19 -11 -26 -20 -17 -20 19 0 65
47 56 57 -4 3 -7 1 -7 -5z"/>
<path d="M4570 2650 c0 -5 5 -10 10 -10 6 0 10 5 10 10 0 6 -4 10 -10 10 -5 0
-10 -4 -10 -10z"/>
<path d="M4391 2389 c-1 -14 6 -34 14 -45 18 -23 18 -10 0 36 -12 32 -14 33
-14 9z"/>
<path d="M4340 2361 c0 -23 25 -91 34 -91 5 0 -23 102 -30 109 -2 2 -4 -6 -4
-18z"/>
<path d="M4280 2346 c0 -18 26 -86 34 -86 5 0 -22 91 -29 98 -3 3 -5 -2 -5
-12z"/>
<path d="M4516 2242 c-3 -6 -1 -14 5 -17 15 -10 25 3 12 16 -7 7 -13 7 -17 1z"/>
<path d="M4535 2190 c3 -5 8 -10 11 -10 2 0 4 5 4 10 0 6 -5 10 -11 10 -5 0
-7 -4 -4 -10z"/>
<path d="M4500 2136 c0 -2 8 -10 18 -17 15 -13 16 -12 3 4 -13 16 -21 21 -21
13z"/>
<path d="M4434 2105 c-15 -23 -15 -27 0 -50 19 -30 46 -32 69 -7 22 24 21 45
-1 65 -26 24 -49 21 -68 -8z"/>
<path d="M1536 1705 c-42 -22 -55 -44 -56 -91 0 -48 25 -85 69 -104 39 -16 76
-6 112 30 47 47 37 129 -21 163 -35 21 -66 21 -104 2z m64 -66 c30 -11 57 -23
59 -25 4 -4 -68 -37 -106 -49 -22 -6 -23 -4 -23 44 0 28 3 51 8 51 4 0 32 -9
62 -21z"/>
<path d="M3007 778 c-4 -95 -7 -201 -7 -235 l0 -63 310 0 310 0 0 138 c0 75
-3 181 -7 235 l-6 97 -297 0 -297 0 -6 -172z m144 102 c22 -12 26 -59 7 -78
-7 -7 -24 -12 -38 -12 -33 0 -50 17 -50 50 0 45 37 63 81 40z"/>
<path d="M1570 930 c0 -6 88 -10 225 -10 137 0 225 4 225 10 0 5 -88 9 -225 9
-137 0 -225 -4 -225 -9z"/>
</g>
</svg>
