<?xml version="1.0" encoding="UTF-8"?>
<svg version="1.1" xmlns="http://www.w3.org/2000/svg" width="179" height="281">
<path d="M0 0 C59.07 0 118.14 0 179 0 C179 92.73 179 185.46 179 281 C119.93 281 60.86 281 0 281 C0 188.27 0 95.54 0 0 Z " fill="#16110D" transform="translate(0,0)"/>
<path d="M0 0 C59.07 0 118.14 0 179 0 C179 30.69 179 61.38 179 93 C119.93 93 60.86 93 0 93 C0 62.31 0 31.62 0 0 Z " fill="#251A12" transform="translate(0,0)"/>
<path d="M0 0 C59.07 0 118.14 0 179 0 C179 1.65 179 3.3 179 5 C164.37300851 5.15754765 149.74593894 5.30531353 135.11874676 5.4429636 C128.31926598 5.50715309 121.51984063 5.57417193 114.72045898 5.64819336 C76.45149186 6.06223565 38.26007948 5.86409317 0 5 C0 3.35 0 1.7 0 0 Z " fill="#1E150E" transform="translate(0,45)"/>
<path d="M0 0 C59.07 0 118.14 0 179 0 C179 1.65 179 3.3 179 5 C119.93 5 60.86 5 0 5 C0 3.35 0 1.7 0 0 Z " fill="#302319" transform="translate(0,62)"/>
<path d="M0 0 C59.07 0 118.14 0 179 0 C179 0.99 179 1.98 179 3 C166.11536309 3.13181756 153.23071334 3.26229567 140.34604645 3.39115143 C134.36057379 3.45105059 128.37510616 3.51137888 122.38964844 3.57275391 C116.59298219 3.63217617 110.79630482 3.69038505 104.99961853 3.74781799 C102.80890992 3.76972398 100.61820533 3.79203767 98.42750549 3.81480408 C78.64002326 4.01995829 58.8482738 4.19922678 39.0625 3.78125 C37.92006836 3.75905396 36.77763672 3.73685791 35.60058594 3.71398926 C32.06700972 3.64484879 28.53350849 3.57250968 25 3.5 C22.55599385 3.45160705 20.11198343 3.40342899 17.66796875 3.35546875 C11.77859463 3.23944306 5.88927771 3.12081566 0 3 C0 2.01 0 1.02 0 0 Z " fill="#1B140E" transform="translate(0,67)"/>
<path d="M0 0 C59.07 0 118.14 0 179 0 C179 0.99 179 1.98 179 3 C119.93 3 60.86 3 0 3 C0 2.01 0 1.02 0 0 Z " fill="#322318" transform="translate(0,42)"/>
<path d="M0 0 C59.07 0 118.14 0 179 0 C179 0.99 179 1.98 179 3 C119.93 3 60.86 3 0 3 C0 2.01 0 1.02 0 0 Z " fill="#19110C" transform="translate(0,39)"/>
<path d="M0 0 C59.07 0 118.14 0 179 0 C179 0.99 179 1.98 179 3 C119.93 3 60.86 3 0 3 C0 2.01 0 1.02 0 0 Z " fill="#332419" transform="translate(0,18)"/>
<path d="M0 0 C59.07 0 118.14 0 179 0 C179 0.99 179 1.98 179 3 C119.93 3 60.86 3 0 3 C0 2.01 0 1.02 0 0 Z " fill="#35261B" transform="translate(0,70)"/>
<path d="M0 0 C59.07 0 118.14 0 179 0 C179 0.99 179 1.98 179 3 C161.54167453 3.03054746 144.08334852 3.05095737 126.625 3.0625 C124.6965518 3.06378403 124.6965518 3.06378403 122.72914505 3.06509399 C90.46213975 3.08408298 58.20036875 3.05764223 25.9375 2.5 C25.24501411 2.48804218 24.55252823 2.47608437 23.83905792 2.46376419 C15.89237609 2.32517912 7.94601432 2.17284969 0 2 C0 1.34 0 0.68 0 0 Z " fill="#2F2117" transform="translate(0,56)"/>
</svg>
