<?xml version="1.0" encoding="UTF-8"?>
<svg version="1.1" xmlns="http://www.w3.org/2000/svg" width="199" height="253">
<path d="M0 0 C65.67 0 131.34 0 199 0 C199 83.49 199 166.98 199 253 C133.33 253 67.66 253 0 253 C0 169.51 0 86.02 0 0 Z " fill="#6C402A" transform="translate(0,0)"/>
<path d="M0 0 C65.67 0 131.34 0 199 0 C199 32.34 199 64.68 199 98 C133.33 98 67.66 98 0 98 C0 65.66 0 33.32 0 0 Z " fill="#5D341F" transform="translate(0,155)"/>
<path d="M0 0 C65.67 0 131.34 0 199 0 C199 6.6 199 13.2 199 20 C133.33 20 67.66 20 0 20 C0 13.4 0 6.8 0 0 Z " fill="#583223" transform="translate(0,155)"/>
<path d="M0 0 C65.67 0 131.34 0 199 0 C199 5.61 199 11.22 199 17 C133.33 17 67.66 17 0 17 C0 11.39 0 5.78 0 0 Z " fill="#5E3624" transform="translate(0,0)"/>
<path d="M0 0 C65.67 0 131.34 0 199 0 C199 2.97 199 5.94 199 9 C133.33 9 67.66 9 0 9 C0 6.03 0 3.06 0 0 Z " fill="#7A432A" transform="translate(0,244)"/>
<path d="M0 0 C65.67 0 131.34 0 199 0 C199 2.97 199 5.94 199 9 C133.33 9 67.66 9 0 9 C0 6.03 0 3.06 0 0 Z " fill="#5B3924" transform="translate(0,61)"/>
<path d="M0 0 C37.29 0 74.58 0 113 0 C113 0.66 113 1.32 113 2 C141.38 2 169.76 2 199 2 C199 3.98 199 5.96 199 8 C133.33 8 67.66 8 0 8 C0 5.36 0 2.72 0 0 Z " fill="#6C3F2F" transform="translate(0,147)"/>
<path d="M0 0 C65.67 0 131.34 0 199 0 C199 2.31 199 4.62 199 7 C133.33 7 67.66 7 0 7 C0 4.69 0 2.38 0 0 Z " fill="#613524" transform="translate(0,168)"/>
<path d="M0 0 C65.67 0 131.34 0 199 0 C199 2.31 199 4.62 199 7 C133.33 7 67.66 7 0 7 C0 4.69 0 2.38 0 0 Z " fill="#5F3B29" transform="translate(0,121)"/>
<path d="M0 0 C65.67 0 131.34 0 199 0 C199 2.31 199 4.62 199 7 C133.33 7 67.66 7 0 7 C0 4.69 0 2.38 0 0 Z " fill="#764B30" transform="translate(0,70)"/>
<path d="M0 0 C65.67 0 131.34 0 199 0 C199 2.31 199 4.62 199 7 C133.33 7 67.66 7 0 7 C0 4.69 0 2.38 0 0 Z " fill="#71442D" transform="translate(0,10)"/>
<path d="M0 0 C65.67 0 131.34 0 199 0 C199 1.65 199 3.3 199 5 C132.63573643 6.05896119 66.36608528 5.91326276 0 5 C0 3.35 0 1.7 0 0 Z " fill="#542B1E" transform="translate(0,175)"/>
<path d="M0 0 C65.67 0 131.34 0 199 0 C199 1.65 199 3.3 199 5 C133.33 5 67.66 5 0 5 C0 3.35 0 1.7 0 0 Z " fill="#472717" transform="translate(0,223)"/>
<path d="M0 0 C65.67 0 131.34 0 199 0 C199 1.65 199 3.3 199 5 C133.33 5 67.66 5 0 5 C0 3.35 0 1.7 0 0 Z " fill="#7E4C2F" transform="translate(0,94)"/>
<path d="M0 0 C65.67 0 131.34 0 199 0 C199 1.65 199 3.3 199 5 C133.33 5 67.66 5 0 5 C0 3.35 0 1.7 0 0 Z " fill="#614425" transform="translate(0,77)"/>
<path d="M0 0 C1.7818784 0.00128403 1.7818784 0.00128403 3.59975433 0.00259399 C18.12901864 0.01385361 32.6582601 0.03373052 47.1875 0.0625 C47.1875 1.7125 47.1875 3.3625 47.1875 5.0625 C-18.4825 5.0625 -84.1525 5.0625 -151.8125 5.0625 C-151.8125 3.7425 -151.8125 2.4225 -151.8125 1.0625 C-138.52098224 0.88339659 -125.22931332 0.71812028 -111.9375 0.5625 C-110.4167304 0.54468412 -110.4167304 0.54468412 -108.86523819 0.52650833 C-72.57639511 0.10559513 -36.29114022 -0.02634087 0 0 Z " fill="#784A2D" transform="translate(151.8125,47.9375)"/>
<path d="M0 0 C65.67 0 131.34 0 199 0 C199 1.65 199 3.3 199 5 C158.08 5 117.16 5 75 5 C75 4.67 75 4.34 75 4 C50.25 3.67 25.5 3.34 0 3 C0 2.01 0 1.02 0 0 Z " fill="#704226" transform="translate(0,214)"/>
<path d="M0 0 C65.67 0 131.34 0 199 0 C199 1.65 199 3.3 199 5 C170.62 5 142.24 5 113 5 C113 4.34 113 3.68 113 3 C75.71 3 38.42 3 0 3 C0 2.01 0 1.02 0 0 Z " fill="#8B563A" transform="translate(0,144)"/>
<path d="M0 0 C65.67 0 131.34 0 199 0 C199 0.99 199 1.98 199 3 C183.45842913 3.17593217 167.916762 3.34184772 152.375 3.5 C150.62503157 3.51781588 150.62503157 3.51781588 148.83971024 3.53599167 C112.70512582 3.9010512 76.5739341 4.09263253 40.4375 4.0625 C39.40334709 4.06164398 38.36919418 4.06078796 37.30370331 4.05990601 C24.86911649 4.04882129 12.43455714 4.02923563 0 4 C0 2.68 0 1.36 0 0 Z " fill="#573122" transform="translate(0,53)"/>
<path d="M0 0 C65.67 0 131.34 0 199 0 C199 0.99 199 1.98 199 3 C183.27092582 3.17571307 167.54175876 3.3416663 151.8125 3.5 C150.04343166 3.51781588 150.04343166 3.51781588 148.23862457 3.53599167 C112.11691226 3.89704007 75.99853201 4.09300008 39.875 4.0625 C38.85366093 4.06164398 37.83232185 4.06078796 36.78003311 4.05990601 C24.52000269 4.04883827 12.2600002 4.02928249 0 4 C0 2.68 0 1.36 0 0 Z " fill="#582F20" transform="translate(0,45)"/>
<path d="M0 0 C65.67 0 131.34 0 199 0 C199 0.99 199 1.98 199 3 C132.64183988 4.14614745 66.35876736 4.03853193 0 3 C0 2.01 0 1.02 0 0 Z " fill="#3F2315" transform="translate(0,211)"/>
<path d="M0 0 C65.67 0 131.34 0 199 0 C199 0.99 199 1.98 199 3 C183.27104863 3.20685674 167.54189661 3.39283026 151.8125 3.5625 C150.04343166 3.5815999 150.04343166 3.5815999 148.23862457 3.60108566 C112.11084343 3.98531064 76.0021042 4.01623355 39.875 3.5625 C38.34299139 3.54327925 38.34299139 3.54327925 36.78003311 3.5236702 C24.5197286 3.36815585 12.25974718 3.19448217 0 3 C0 2.01 0 1.02 0 0 Z " fill="#482C1F" transform="translate(0,141)"/>
<path d="M0 0 C65.67 0 131.34 0 199 0 C199 0.99 199 1.98 199 3 C133.33 3 67.66 3 0 3 C0 2.01 0 1.02 0 0 Z " fill="#3D2114" transform="translate(0,193)"/>
<path d="M0 0 C65.67 0 131.34 0 199 0 C199 0.99 199 1.98 199 3 C133.33 3 67.66 3 0 3 C0 2.01 0 1.02 0 0 Z " fill="#422519" transform="translate(0,165)"/>
<path d="M0 0 C65.67 0 131.34 0 199 0 C199 0.99 199 1.98 199 3 C133.33 3 67.66 3 0 3 C0 2.01 0 1.02 0 0 Z " fill="#925A40" transform="translate(0,138)"/>
<path d="M0 0 C65.67 0 131.34 0 199 0 C199 0.99 199 1.98 199 3 C133.33 3 67.66 3 0 3 C0 2.01 0 1.02 0 0 Z " fill="#935A3F" transform="translate(0,128)"/>
<path d="M0 0 C65.67 0 131.34 0 199 0 C199 0.99 199 1.98 199 3 C133.33 3 67.66 3 0 3 C0 2.01 0 1.02 0 0 Z " fill="#462B1A" transform="translate(0,91)"/>
<path d="M0 0 C65.67 0 131.34 0 199 0 C199 0.99 199 1.98 199 3 C133.33 3 67.66 3 0 3 C0 2.01 0 1.02 0 0 Z " fill="#915439" transform="translate(0,0)"/>
<path d="M0 0 C65.67 0 131.34 0 199 0 C199 0.99 199 1.98 199 3 C133.33 3 67.66 3 0 3 C0 2.01 0 1.02 0 0 Z " fill="#8B5535" transform="translate(0,88)"/>
<path d="M0 0 C27.39 0 54.78 0 83 0 C83 1.98 83 3.96 83 6 C81.25707823 7.74292177 78.99376505 7.11980303 76.67175293 7.12442017 C75.90858765 7.12082489 75.14542236 7.11722961 74.35913086 7.11352539 C73.15922264 7.11374443 73.15922264 7.11374443 71.93507385 7.1139679 C69.27830335 7.11326855 66.62160207 7.10547518 63.96484375 7.09765625 C62.12781309 7.09579215 60.29078194 7.09436821 58.45375061 7.09336853 C53.60890338 7.08954275 48.76408592 7.07971196 43.91925049 7.06866455 C38.97937422 7.05845172 34.03949315 7.05387119 29.09960938 7.04882812 C19.39972647 7.03808974 9.69986571 7.0210126 0 7 C0 4.69 0 2.38 0 0 Z " fill="#7A3C33" transform="translate(0,204)"/>
<path d="M0 0 C65.67 0 131.34 0 199 0 C199 0.99 199 1.98 199 3 C133.33 3 67.66 3 0 3 C0 2.01 0 1.02 0 0 Z " fill="#8A4E35" transform="translate(0,162)"/>
<path d="M0 0 C65.67 0 131.34 0 199 0 C199 0.99 199 1.98 199 3 C133.33 3 67.66 3 0 3 C0 2.01 0 1.02 0 0 Z " fill="#894C34" transform="translate(0,172)"/>
<path d="M0 0 C65.67 0 131.34 0 199 0 C199 0.99 199 1.98 199 3 C133.33 3 67.66 3 0 3 C0 2.01 0 1.02 0 0 Z " fill="#85472E" transform="translate(0,180)"/>
<path d="M0 0 C27.72 0 55.44 0 84 0 C84 0.99 84 1.98 84 3 C121.95 3 159.9 3 199 3 C199 3.33 199 3.66 199 4 C133.33 4 67.66 4 0 4 C0 2.68 0 1.36 0 0 Z " fill="#3F1C17" transform="translate(0,78)"/>
<path d="M0 0 C39.93 0 79.86 0 121 0 C121 0.66 121 1.32 121 2 C146.74 2 172.48 2 199 2 C199 2.33 199 2.66 199 3 C133.33 3 67.66 3 0 3 C0 2.01 0 1.02 0 0 Z " fill="#A2583E" transform="translate(0,14)"/>
<path d="M0 0 C44.55 0 89.1 0 135 0 C135 0.66 135 1.32 135 2 C128.48286651 3.18275979 122.06494397 3.13380605 115.45532227 3.11352539 C114.20584305 3.11367142 112.95636383 3.11381744 111.66902161 3.1139679 C108.26042988 3.11339257 104.85189949 3.10839373 101.44331861 3.10139394 C97.87456269 3.09512245 94.30580587 3.09455361 90.73704529 3.09336853 C83.98698723 3.09026638 77.23694545 3.08206808 70.48689455 3.07201904 C62.79885173 3.06082319 55.11080812 3.05533872 47.42275918 3.05032361 C31.61516337 3.03988449 15.80758379 3.02230673 0 3 C0 2.01 0 1.02 0 0 Z " fill="#883C29" transform="translate(0,250)"/>
<path d="M0 0 C65.67 0 131.34 0 199 0 C199 1.32 199 2.64 199 4 C175.57 4 152.14 4 128 4 C128 3.67 128 3.34 128 3 C130.31 3 132.62 3 135 3 C135 2.34 135 1.68 135 1 C90.45 1 45.9 1 0 1 C0 0.67 0 0.34 0 0 Z " fill="#45331C" transform="translate(0,249)"/>
<path d="M0 0 C1.16681431 0.00128403 1.16681431 0.00128403 2.35720062 0.00259399 C11.30066019 0.01323133 20.24408426 0.03192292 29.1875 0.0625 C29.1875 0.7225 29.1875 1.3825 29.1875 2.0625 C-37.17676357 3.12146119 -103.44641472 2.97576276 -169.8125 2.0625 C-169.8125 1.7325 -169.8125 1.4025 -169.8125 1.0625 C-150.52088363 0.88989035 -131.22921555 0.72360695 -111.9375 0.5625 C-111.2260711 0.55655146 -110.51464219 0.55060292 -109.78165483 0.54447412 C-73.18789138 0.23885453 -36.59537515 -0.04058262 0 0 Z " fill="#3C2613" transform="translate(169.8125,177.9375)"/>
<path d="M0 0 C24.42 0 48.84 0 74 0 C74 0.66 74 1.32 74 2 C65.35451431 3.02336435 56.83738909 3.05759677 48.14453125 2.87890625 C46.74778624 2.85453913 45.35103194 2.83069917 43.95426941 2.80735779 C40.31616459 2.74517124 36.67822874 2.67592731 33.0402832 2.60510254 C29.3127396 2.53381965 25.58507823 2.46936427 21.85742188 2.40429688 C14.57148414 2.27613086 7.28571159 2.14049264 0 2 C0 1.34 0 0.68 0 0 Z " fill="#6E3127" transform="translate(0,218)"/>
</svg>
